<mxfile host="app.diagrams.net" modified="2021-04-14T08:39:46.841Z" agent="5.0 (X11; Linux x86_64) AppleWebKit/537.36 (KHTML, like Gecko) Chrome/88.0.4324.182 Safari/537.36" etag="pN789Fkzd1VAxoNPpMF4" version="14.6.0" type="github">
  <diagram id="C5RBs43oDa-KdzZeNtuy" name="Page-1">
    <mxGraphModel dx="1422" dy="721" grid="1" gridSize="10" guides="1" tooltips="1" connect="1" arrows="1" fold="1" page="1" pageScale="1" pageWidth="827" pageHeight="1169" math="0" shadow="0">
      <root>
        <mxCell id="WIyWlLk6GJQsqaUBKTNV-0" />
        <mxCell id="WIyWlLk6GJQsqaUBKTNV-1" parent="WIyWlLk6GJQsqaUBKTNV-0" />
        <mxCell id="zUxlP2skSjDqgcWF5nVC-0" value="" style="edgeStyle=orthogonalEdgeStyle;rounded=0;orthogonalLoop=1;jettySize=auto;html=1;" edge="1" parent="WIyWlLk6GJQsqaUBKTNV-1" source="zUxlP2skSjDqgcWF5nVC-1" target="zUxlP2skSjDqgcWF5nVC-4">
          <mxGeometry relative="1" as="geometry" />
        </mxCell>
        <mxCell id="zUxlP2skSjDqgcWF5nVC-1" value="校验参数" style="rounded=1;whiteSpace=wrap;html=1;fontSize=12;glass=0;strokeWidth=1;shadow=0;fillColor=#dae8fc;strokeColor=#6c8ebf;" vertex="1" parent="WIyWlLk6GJQsqaUBKTNV-1">
          <mxGeometry x="221" y="50" width="120" height="40" as="geometry" />
        </mxCell>
        <mxCell id="zUxlP2skSjDqgcWF5nVC-2" value="结束" style="rounded=1;whiteSpace=wrap;html=1;fontSize=12;glass=0;strokeWidth=1;shadow=0;fillColor=#dae8fc;strokeColor=#6c8ebf;" vertex="1" parent="WIyWlLk6GJQsqaUBKTNV-1">
          <mxGeometry x="221" y="610" width="120" height="40" as="geometry" />
        </mxCell>
        <mxCell id="zUxlP2skSjDqgcWF5nVC-3" style="edgeStyle=orthogonalEdgeStyle;rounded=0;orthogonalLoop=1;jettySize=auto;html=1;exitX=0.5;exitY=1;exitDx=0;exitDy=0;entryX=0.5;entryY=0;entryDx=0;entryDy=0;" edge="1" parent="WIyWlLk6GJQsqaUBKTNV-1" source="zUxlP2skSjDqgcWF5nVC-4" target="zUxlP2skSjDqgcWF5nVC-7">
          <mxGeometry relative="1" as="geometry" />
        </mxCell>
        <mxCell id="zUxlP2skSjDqgcWF5nVC-4" value="查询该订单序列号" style="rounded=1;whiteSpace=wrap;html=1;fillColor=#d5e8d4;strokeColor=#82b366;" vertex="1" parent="WIyWlLk6GJQsqaUBKTNV-1">
          <mxGeometry x="221" y="110" width="120" height="40" as="geometry" />
        </mxCell>
        <mxCell id="zUxlP2skSjDqgcWF5nVC-5" style="edgeStyle=orthogonalEdgeStyle;rounded=0;orthogonalLoop=1;jettySize=auto;html=1;exitX=0.5;exitY=1;exitDx=0;exitDy=0;entryX=0.5;entryY=0;entryDx=0;entryDy=0;" edge="1" parent="WIyWlLk6GJQsqaUBKTNV-1" source="zUxlP2skSjDqgcWF5nVC-7" target="zUxlP2skSjDqgcWF5nVC-29">
          <mxGeometry relative="1" as="geometry" />
        </mxCell>
        <mxCell id="zUxlP2skSjDqgcWF5nVC-6" style="edgeStyle=orthogonalEdgeStyle;rounded=0;orthogonalLoop=1;jettySize=auto;html=1;exitX=0.5;exitY=1;exitDx=0;exitDy=0;" edge="1" parent="WIyWlLk6GJQsqaUBKTNV-1" source="zUxlP2skSjDqgcWF5nVC-7" target="zUxlP2skSjDqgcWF5nVC-11">
          <mxGeometry relative="1" as="geometry" />
        </mxCell>
        <mxCell id="zUxlP2skSjDqgcWF5nVC-7" value="将序列号按数量分发给其他协程处理" style="rounded=1;whiteSpace=wrap;html=1;fillColor=#d5e8d4;strokeColor=#82b366;" vertex="1" parent="WIyWlLk6GJQsqaUBKTNV-1">
          <mxGeometry x="221" y="170" width="120" height="37" as="geometry" />
        </mxCell>
        <mxCell id="zUxlP2skSjDqgcWF5nVC-10" style="edgeStyle=orthogonalEdgeStyle;rounded=0;orthogonalLoop=1;jettySize=auto;html=1;exitX=0.5;exitY=1;exitDx=0;exitDy=0;" edge="1" parent="WIyWlLk6GJQsqaUBKTNV-1" source="zUxlP2skSjDqgcWF5nVC-11" target="zUxlP2skSjDqgcWF5nVC-27">
          <mxGeometry relative="1" as="geometry">
            <mxPoint x="363" y="310" as="targetPoint" />
          </mxGeometry>
        </mxCell>
        <mxCell id="zUxlP2skSjDqgcWF5nVC-11" value="其他协程......" style="rounded=0;whiteSpace=wrap;html=1;fillColor=#ffe6cc;strokeColor=#d79b00;" vertex="1" parent="WIyWlLk6GJQsqaUBKTNV-1">
          <mxGeometry x="302.5" y="250" width="120" height="40" as="geometry" />
        </mxCell>
        <mxCell id="zUxlP2skSjDqgcWF5nVC-14" style="edgeStyle=orthogonalEdgeStyle;rounded=0;orthogonalLoop=1;jettySize=auto;html=1;entryX=0.5;entryY=0;entryDx=0;entryDy=0;exitX=0.5;exitY=1;exitDx=0;exitDy=0;" edge="1" parent="WIyWlLk6GJQsqaUBKTNV-1" source="zUxlP2skSjDqgcWF5nVC-15" target="zUxlP2skSjDqgcWF5nVC-17">
          <mxGeometry relative="1" as="geometry">
            <Array as="points">
              <mxPoint x="200" y="380" />
              <mxPoint x="281" y="380" />
            </Array>
          </mxGeometry>
        </mxCell>
        <mxCell id="zUxlP2skSjDqgcWF5nVC-15" value="生成序列号正版认证二维码图片" style="rounded=0;whiteSpace=wrap;html=1;fillColor=#ffe6cc;strokeColor=#d79b00;" vertex="1" parent="WIyWlLk6GJQsqaUBKTNV-1">
          <mxGeometry x="140" y="320" width="120" height="40" as="geometry" />
        </mxCell>
        <mxCell id="zUxlP2skSjDqgcWF5nVC-16" value="" style="edgeStyle=orthogonalEdgeStyle;rounded=0;orthogonalLoop=1;jettySize=auto;html=1;" edge="1" parent="WIyWlLk6GJQsqaUBKTNV-1" source="zUxlP2skSjDqgcWF5nVC-17" target="zUxlP2skSjDqgcWF5nVC-19">
          <mxGeometry relative="1" as="geometry" />
        </mxCell>
        <mxCell id="zUxlP2skSjDqgcWF5nVC-17" value="将图片文件汇总，和序列号csv文件放入压缩包中" style="rounded=0;whiteSpace=wrap;html=1;fillColor=#d5e8d4;strokeColor=#82b366;" vertex="1" parent="WIyWlLk6GJQsqaUBKTNV-1">
          <mxGeometry x="221" y="410" width="120" height="50" as="geometry" />
        </mxCell>
        <mxCell id="zUxlP2skSjDqgcWF5nVC-18" value="" style="edgeStyle=orthogonalEdgeStyle;rounded=0;orthogonalLoop=1;jettySize=auto;html=1;" edge="1" parent="WIyWlLk6GJQsqaUBKTNV-1" source="zUxlP2skSjDqgcWF5nVC-19" target="zUxlP2skSjDqgcWF5nVC-21">
          <mxGeometry relative="1" as="geometry" />
        </mxCell>
        <mxCell id="zUxlP2skSjDqgcWF5nVC-19" value="将压缩包上传到oss服务" style="rounded=0;whiteSpace=wrap;html=1;fillColor=#d5e8d4;strokeColor=#82b366;" vertex="1" parent="WIyWlLk6GJQsqaUBKTNV-1">
          <mxGeometry x="221" y="485" width="120" height="40" as="geometry" />
        </mxCell>
        <mxCell id="zUxlP2skSjDqgcWF5nVC-20" value="" style="edgeStyle=orthogonalEdgeStyle;rounded=0;orthogonalLoop=1;jettySize=auto;html=1;" edge="1" parent="WIyWlLk6GJQsqaUBKTNV-1" source="zUxlP2skSjDqgcWF5nVC-21" target="zUxlP2skSjDqgcWF5nVC-2">
          <mxGeometry relative="1" as="geometry" />
        </mxCell>
        <mxCell id="zUxlP2skSjDqgcWF5nVC-21" value="将oss上的下载地址保存到任务详情" style="rounded=0;whiteSpace=wrap;html=1;fillColor=#d5e8d4;strokeColor=#82b366;" vertex="1" parent="WIyWlLk6GJQsqaUBKTNV-1">
          <mxGeometry x="221" y="550" width="120" height="40" as="geometry" />
        </mxCell>
        <mxCell id="zUxlP2skSjDqgcWF5nVC-26" style="edgeStyle=orthogonalEdgeStyle;rounded=0;orthogonalLoop=1;jettySize=auto;html=1;exitX=0.5;exitY=1;exitDx=0;exitDy=0;entryX=0.5;entryY=0;entryDx=0;entryDy=0;" edge="1" parent="WIyWlLk6GJQsqaUBKTNV-1" source="zUxlP2skSjDqgcWF5nVC-27" target="zUxlP2skSjDqgcWF5nVC-17">
          <mxGeometry relative="1" as="geometry">
            <Array as="points">
              <mxPoint x="363" y="380" />
              <mxPoint x="281" y="380" />
            </Array>
          </mxGeometry>
        </mxCell>
        <mxCell id="zUxlP2skSjDqgcWF5nVC-27" value="将加密后的内容写入文件" style="rounded=0;whiteSpace=wrap;html=1;fillColor=#ffe6cc;strokeColor=#d79b00;" vertex="1" parent="WIyWlLk6GJQsqaUBKTNV-1">
          <mxGeometry x="303" y="320" width="120" height="40" as="geometry" />
        </mxCell>
        <mxCell id="zUxlP2skSjDqgcWF5nVC-28" style="edgeStyle=orthogonalEdgeStyle;rounded=0;orthogonalLoop=1;jettySize=auto;html=1;exitX=0.5;exitY=1;exitDx=0;exitDy=0;" edge="1" parent="WIyWlLk6GJQsqaUBKTNV-1" source="zUxlP2skSjDqgcWF5nVC-29" target="zUxlP2skSjDqgcWF5nVC-15">
          <mxGeometry relative="1" as="geometry">
            <mxPoint x="210" y="350" as="targetPoint" />
          </mxGeometry>
        </mxCell>
        <mxCell id="zUxlP2skSjDqgcWF5nVC-29" value="协程1" style="rounded=0;whiteSpace=wrap;html=1;fillColor=#ffe6cc;strokeColor=#d79b00;" vertex="1" parent="WIyWlLk6GJQsqaUBKTNV-1">
          <mxGeometry x="140" y="250" width="120" height="40" as="geometry" />
        </mxCell>
      </root>
    </mxGraphModel>
  </diagram>
</mxfile>
